<svg xmlns="http://www.w3.org/2000/svg" width="1280" height="800" viewBox="0 0 1280 800">
  <defs>
    <linearGradient id="bg" x1="0" y1="0" x2="1" y2="1">
      <stop offset="0" stop-color="#0b1224"/>
      <stop offset="1" stop-color="#020617"/>
    </linearGradient>
  </defs>
  <rect width="1280" height="800" fill="url(#bg)"/>
  <rect x="56" y="56" width="1168" height="688" rx="28" fill="#071225" stroke="#334155" stroke-width="2"/>
  <text x="96" y="150" fill="#e2e8f0" font-size="54" font-family="ui-sans-serif, system-ui">Payment API</text>
  <text x="96" y="210" fill="#94a3b8" font-size="24" font-family="ui-sans-serif, system-ui">Monitoring dashboard</text>
  <g fill="#0b1224" stroke="#334155" stroke-width="2">
    <rect x="96" y="270" width="360" height="160" rx="18"/>
    <rect x="476" y="270" width="360" height="160" rx="18"/>
    <rect x="856" y="270" width="320" height="160" rx="18"/>
    <rect x="96" y="450" width="1080" height="220" rx="18"/>
  </g>
  <g fill="#cbd5e1" font-size="18" font-family="ui-monospace, SFMono-Regular">
    <text x="126" y="315">p95 latency</text>
    <text x="506" y="315">error rate</text>
    <text x="886" y="315">rps</text>
  </g>
  <g fill="none" stroke-width="4">
    <path d="M126 400 C180 360 240 420 300 380 C360 340 420 420 430 360" stroke="#34d399"/>
    <path d="M506 400 C560 395 620 405 680 395 C740 390 800 405 810 398" stroke="#60a5fa"/>
    <path d="M886 400 C920 380 980 420 1040 372 C1100 330 1140 410 1150 360" stroke="#f59e0b"/>
  </g>
</svg>
