<svg xmlns="http://www.w3.org/2000/svg" width="1280" height="800" viewBox="0 0 1280 800">
  <defs>
    <linearGradient id="bg" x1="0" y1="0" x2="1" y2="1">
      <stop offset="0" stop-color="#020617"/>
      <stop offset="1" stop-color="#0b1224"/>
    </linearGradient>
  </defs>
  <rect width="1280" height="800" fill="url(#bg)"/>
  <rect x="56" y="56" width="1168" height="688" rx="28" fill="#071225" stroke="#334155" stroke-width="2"/>
  <text x="96" y="150" fill="#e2e8f0" font-size="54" font-family="ui-sans-serif, system-ui">Notification Service</text>
  <text x="96" y="210" fill="#94a3b8" font-size="24" font-family="ui-sans-serif, system-ui">Workflow</text>
  <g stroke="#334155" stroke-width="2" fill="#0b1224">
    <rect x="120" y="310" width="260" height="110" rx="18"/>
    <rect x="430" y="310" width="260" height="110" rx="18"/>
    <rect x="740" y="310" width="260" height="110" rx="18"/>
    <rect x="1050" y="310" width="120" height="110" rx="18"/>
    <rect x="430" y="470" width="740" height="170" rx="18"/>
  </g>
  <g fill="#cbd5e1" font-size="18" font-family="ui-monospace, SFMono-Regular">
    <text x="150" y="370">API</text>
    <text x="460" y="370">Queue</text>
    <text x="770" y="370">Workers</text>
    <text x="1070" y="370">Email</text>
    <text x="460" y="530">Push Provider / Webhook</text>
  </g>
  <g stroke="#60a5fa" stroke-width="3" fill="none">
    <path d="M380 365 H430"/>
    <path d="M690 365 H740"/>
    <path d="M1000 365 H1050"/>
    <path d="M870 420 V470"/>
  </g>
</svg>
