<svg xmlns="http://www.w3.org/2000/svg" width="1280" height="800" viewBox="0 0 1280 800">
  <defs>
    <linearGradient id="bg" x1="0" y1="0" x2="1" y2="1">
      <stop offset="0" stop-color="#0f172a"/>
      <stop offset="1" stop-color="#020617"/>
    </linearGradient>
  </defs>
  <rect width="1280" height="800" fill="url(#bg)"/>
  <rect x="56" y="56" width="1168" height="688" rx="28" fill="#071225" stroke="#334155" stroke-width="2"/>
  <text x="96" y="150" fill="#e2e8f0" font-size="54" font-family="ui-sans-serif, system-ui">Notification Service</text>
  <text x="96" y="210" fill="#94a3b8" font-size="24" font-family="ui-sans-serif, system-ui">Queue + retry strategy</text>
  <g stroke="#334155" stroke-width="2" fill="#0b1224">
    <rect x="120" y="300" width="420" height="160" rx="18"/>
    <rect x="580" y="300" width="420" height="160" rx="18"/>
    <rect x="1040" y="300" width="160" height="160" rx="18"/>
    <rect x="120" y="500" width="1080" height="180" rx="18"/>
  </g>
  <g fill="#cbd5e1" font-size="18" font-family="ui-monospace, SFMono-Regular">
    <text x="150" y="350">Main Queue</text>
    <text x="610" y="350">Retry Queue</text>
    <text x="1065" y="350">DLQ</text>
    <text x="150" y="560">Backoff: 1m → 5m → 15m → 1h</text>
  </g>
  <g stroke="#34d399" stroke-width="3" fill="none">
    <path d="M540 380 H580"/>
    <path d="M1000 380 H1040"/>
  </g>
  <g fill="#34d399">
    <circle cx="300" cy="420" r="6"/>
    <circle cx="760" cy="420" r="6"/>
    <circle cx="1120" cy="420" r="6"/>
  </g>
</svg>
