<svg xmlns="http://www.w3.org/2000/svg" width="1280" height="800" viewBox="0 0 1280 800">
  <defs>
    <linearGradient id="bg" x1="0" y1="0" x2="1" y2="1">
      <stop offset="0" stop-color="#071225"/>
      <stop offset="1" stop-color="#020617"/>
    </linearGradient>
  </defs>
  <rect width="1280" height="800" fill="url(#bg)"/>
  <rect x="56" y="56" width="1168" height="688" rx="28" fill="#0b1224" stroke="#334155" stroke-width="2"/>
  <text x="96" y="150" fill="#e2e8f0" font-size="54" font-family="ui-sans-serif, system-ui">Notification Service</text>
  <text x="96" y="210" fill="#94a3b8" font-size="24" font-family="ui-sans-serif, system-ui">Delivery metrics</text>
  <g fill="#0b1224" stroke="#334155" stroke-width="2">
    <rect x="96" y="270" width="520" height="180" rx="18"/>
    <rect x="656" y="270" width="520" height="180" rx="18"/>
    <rect x="96" y="470" width="1080" height="200" rx="18"/>
  </g>
  <g fill="#cbd5e1" font-size="18" font-family="ui-monospace, SFMono-Regular">
    <text x="126" y="315">success rate</text>
    <text x="686" y="315">retry rate</text>
  </g>
  <g fill="none" stroke-width="5">
    <path d="M126 420 C220 320 320 470 420 360 C520 260 590 420 606 330" stroke="#34d399"/>
    <path d="M686 420 C780 380 880 450 980 390 C1080 330 1140 440 1176 350" stroke="#f59e0b"/>
  </g>
</svg>
